<svg width="25" height="24" viewBox="0 0 25 24" fill="none" xmlns="http://www.w3.org/2000/svg">
<path d="M12.3333 2C13.2293 2 14.0973 2.118 14.9233 2.339L12.7973 4.464C12.6361 4.62593 12.4938 4.80577 12.3733 5H12.3333C10.9489 5 9.5955 5.41054 8.44435 6.17971C7.29321 6.94888 6.396 8.04213 5.86619 9.32122C5.33637 10.6003 5.19775 12.0078 5.46785 13.3656C5.73794 14.7235 6.40463 15.9708 7.3836 16.9497C8.36256 17.9287 9.60984 18.5954 10.9677 18.8655C12.3256 19.1356 13.733 18.997 15.0121 18.4672C16.2912 17.9373 17.3845 17.0401 18.1536 15.889C18.9228 14.7378 19.3333 13.3845 19.3333 12V11.96C19.5253 11.84 19.7053 11.699 19.8683 11.535L21.9943 9.41C22.2153 10.236 22.3333 11.104 22.3333 12C22.3333 17.523 17.8563 22 12.3333 22C6.81034 22 2.33334 17.523 2.33334 12C2.33334 6.477 6.81034 2 12.3333 2ZM11.9193 7.017C11.9193 7.868 11.8773 8.731 11.9233 9.581L11.3833 10.121C11.1976 10.3068 11.0502 10.5273 10.9497 10.77C10.8492 11.0127 10.7974 11.2728 10.7974 11.5355C10.7974 11.7982 10.8492 12.0583 10.9497 12.301C11.0502 12.5437 11.1976 12.7642 11.3833 12.95C11.5691 13.1358 11.7896 13.2831 12.0323 13.3836C12.275 13.4842 12.5351 13.5359 12.7978 13.5359C13.0605 13.5359 13.3207 13.4842 13.5634 13.3836C13.8061 13.2831 14.0266 13.1358 14.2123 12.95L14.7523 12.41C15.6023 12.456 16.4643 12.414 17.3163 12.414C17.2373 13.3643 16.8882 14.2723 16.3102 15.0307C15.7321 15.7892 14.9492 16.3665 14.0538 16.6946C13.1584 17.0227 12.1879 17.0879 11.2566 16.8825C10.3254 16.6771 9.4723 16.2097 8.79799 15.5353C8.12368 14.861 7.65627 14.008 7.45088 13.0767C7.24549 12.1455 7.31068 11.1749 7.63878 10.2795C7.96688 9.38414 8.54419 8.60124 9.30263 8.02317C10.0611 7.44511 10.969 7.09599 11.9193 7.017ZM18.8373 2.127C19.0199 2.20268 19.1759 2.33074 19.2857 2.49501C19.3955 2.65928 19.4542 2.8524 19.4543 3.05V4.88H21.2833C21.4811 4.88004 21.6744 4.93871 21.8388 5.0486C22.0032 5.15848 22.1314 5.31465 22.207 5.49735C22.2827 5.68005 22.3025 5.88108 22.2639 6.07503C22.2254 6.26898 22.1302 6.44715 21.9903 6.587L18.4533 10.12C18.2659 10.3075 18.0115 10.4129 17.7463 10.413H15.3333L13.5043 12.242C13.3167 12.4295 13.0623 12.5348 12.797 12.5347C12.5317 12.5346 12.2774 12.4291 12.0898 12.2415C11.9023 12.0539 11.797 11.7994 11.7971 11.5341C11.7972 11.2689 11.9027 11.0145 12.0903 10.827L13.9193 9V6.586C13.9192 6.45452 13.9451 6.32431 13.9953 6.20282C14.0456 6.08134 14.1194 5.97096 14.2123 5.878L17.7473 2.343C17.8872 2.20307 18.0654 2.10776 18.2594 2.06913C18.4534 2.0305 18.6546 2.0503 18.8373 2.126V2.127Z" fill="#A0A4B0"/>
</svg>
