<svg width="24" height="24" viewBox="0 0 24 24" fill="none" xmlns="http://www.w3.org/2000/svg">
<g clip-path="url(#clip0_101_1003)">
<path d="M10 13C10 11.8954 10.8954 11 12 11C13.1046 11 14 11.8954 14 13V21H10V13Z" fill="#A0A4B0"/>
<path d="M13.228 2.42739C12.8769 2.15039 12.4448 2 12 2C11.5552 2 11.1231 2.15039 10.772 2.42739L2.38801 9.04018C1.63601 9.63553 2.05001 10.8577 3.00301 10.8577H4.00001V18.9715C4.00001 19.5095 4.21073 20.0255 4.5858 20.4059C4.96087 20.7863 5.46958 21 6.00001 21H10V14.9146C10 14.3766 10.2107 13.8607 10.5858 13.4803C10.9609 13.0999 11.4696 12.8861 12 12.8861C12.5304 12.8861 13.0392 13.0999 13.4142 13.4803C13.7893 13.8607 14 14.3766 14 14.9146V21H18C18.5304 21 19.0392 20.7863 19.4142 20.4059C19.7893 20.0255 20 19.5095 20 18.9715V10.8577H20.997C21.949 10.8577 22.365 9.63553 21.612 9.04119L13.228 2.42739Z" fill="#A0A4B0"/>
<path d="M10 16C10 14.8954 10.8954 14 12 14C13.1046 14 14 14.8954 14 16V21H10V16Z" fill="white"/>
</g>
<defs>
<clipPath id="clip0_101_1003">
<rect width="24" height="24" fill="white"/>
</clipPath>
</defs>
</svg>
