<svg width="32" height="33" viewBox="0 0 32 33" fill="none" xmlns="http://www.w3.org/2000/svg">
<g filter="url(#filter0_dd_101_914)">
<g clip-path="url(#clip0_101_914)">
<circle cx="16" cy="15.5" r="11.8125" fill="#FFC577" stroke="#FFAF44" stroke-width="0.375"/>
<circle cx="16" cy="15.5" r="10.3125" fill="url(#paint0_linear_101_914)" stroke="#FDBD4D" stroke-width="0.375"/>
<g filter="url(#filter1_dd_101_914)">
<path d="M13.702 9.956C14.431 9.65597 15.2116 9.50107 16 9.5C16.786 9.5 17.566 9.656 18.298 9.956C19.024 10.256 19.684 10.7 20.242 11.258C20.8 11.816 21.244 12.476 21.544 13.202C21.844 13.934 22 14.714 22 15.5C22 17.09 21.37 18.62 20.242 19.742C19.6855 20.2999 19.0243 20.7424 18.2963 21.044C17.5684 21.3457 16.788 21.5007 16 21.5C15.2116 21.4989 14.431 21.344 13.702 21.044C12.9747 20.7421 12.314 20.2997 11.758 19.742C11.2001 19.1855 10.7576 18.5243 10.456 17.7963C10.1543 17.0684 9.99932 16.288 10 15.5C10 13.91 10.63 12.38 11.758 11.258C12.316 10.7 12.976 10.256 13.702 9.956ZM16 18.5L16.936 16.448L19 15.5L16.936 14.564L16 12.5L15.058 14.564L13 15.5L15.058 16.448L16 18.5Z" fill="#FDE194"/>
</g>
</g>
</g>
<defs>
<filter id="filter0_dd_101_914" x="0" y="0.5" width="32" height="32" filterUnits="userSpaceOnUse" color-interpolation-filters="sRGB">
<feFlood flood-opacity="0" result="BackgroundImageFix"/>
<feColorMatrix in="SourceAlpha" type="matrix" values="0 0 0 0 0 0 0 0 0 0 0 0 0 0 0 0 0 0 127 0" result="hardAlpha"/>
<feOffset dy="1"/>
<feGaussianBlur stdDeviation="2"/>
<feColorMatrix type="matrix" values="0 0 0 0 0 0 0 0 0 0 0 0 0 0 0 0 0 0 0.12 0"/>
<feBlend mode="normal" in2="BackgroundImageFix" result="effect1_dropShadow_101_914"/>
<feColorMatrix in="SourceAlpha" type="matrix" values="0 0 0 0 0 0 0 0 0 0 0 0 0 0 0 0 0 0 127 0" result="hardAlpha"/>
<feOffset/>
<feGaussianBlur stdDeviation="0.5"/>
<feColorMatrix type="matrix" values="0 0 0 0 0 0 0 0 0 0 0 0 0 0 0 0 0 0 0.039 0"/>
<feBlend mode="normal" in2="effect1_dropShadow_101_914" result="effect2_dropShadow_101_914"/>
<feBlend mode="normal" in="SourceGraphic" in2="effect2_dropShadow_101_914" result="shape"/>
</filter>
<filter id="filter1_dd_101_914" x="8.5" y="8.5" width="15" height="15" filterUnits="userSpaceOnUse" color-interpolation-filters="sRGB">
<feFlood flood-opacity="0" result="BackgroundImageFix"/>
<feColorMatrix in="SourceAlpha" type="matrix" values="0 0 0 0 0 0 0 0 0 0 0 0 0 0 0 0 0 0 127 0" result="hardAlpha"/>
<feOffset dy="0.5"/>
<feGaussianBlur stdDeviation="0.75"/>
<feColorMatrix type="matrix" values="0 0 0 0 0 0 0 0 0 0 0 0 0 0 0 0 0 0 0.12 0"/>
<feBlend mode="normal" in2="BackgroundImageFix" result="effect1_dropShadow_101_914"/>
<feColorMatrix in="SourceAlpha" type="matrix" values="0 0 0 0 0 0 0 0 0 0 0 0 0 0 0 0 0 0 127 0" result="hardAlpha"/>
<feOffset/>
<feGaussianBlur stdDeviation="0.5"/>
<feColorMatrix type="matrix" values="0 0 0 0 0 0 0 0 0 0 0 0 0 0 0 0 0 0 0.039 0"/>
<feBlend mode="normal" in2="effect1_dropShadow_101_914" result="effect2_dropShadow_101_914"/>
<feBlend mode="normal" in="SourceGraphic" in2="effect2_dropShadow_101_914" result="shape"/>
</filter>
<linearGradient id="paint0_linear_101_914" x1="24.5312" y1="21.4062" x2="6.625" y2="11" gradientUnits="userSpaceOnUse">
<stop stop-color="#FEC258"/>
<stop offset="0.493004" stop-color="#F8AA1E"/>
<stop offset="0.978599" stop-color="#FEC258"/>
</linearGradient>
<clipPath id="clip0_101_914">
<path d="M4 15.5C4 8.87258 9.37258 3.5 16 3.5C22.6274 3.5 28 8.87258 28 15.5C28 22.1274 22.6274 27.5 16 27.5C9.37258 27.5 4 22.1274 4 15.5Z" fill="white"/>
</clipPath>
</defs>
</svg>
