<svg width="24" height="24" viewBox="0 0 24 24" fill="none" xmlns="http://www.w3.org/2000/svg">
<path d="M14.7692 19.1428C14.7692 19.9006 14.4775 20.6273 13.9581 21.1632C13.4388 21.699 12.7344 22 12 22C11.2656 22 10.5612 21.699 10.0419 21.1632C9.52253 20.6273 9.23077 19.9006 9.23077 19.1428H14.7692ZM18.9231 17.7143H3.83077C3.61044 17.7143 3.39913 17.6239 3.24333 17.4632C3.08753 17.3025 3 17.0844 3 16.8571C3 16.6298 3.08753 16.4118 3.24333 16.251C3.39913 16.0903 3.61044 16 3.83077 16H5.07692V10.5713C5.07692 7.11416 7.45846 4.22842 10.6223 3.57127C10.603 3.37263 10.6242 3.17202 10.6847 2.98237C10.7451 2.79272 10.8434 2.61824 10.9732 2.4702C11.103 2.32215 11.2614 2.20382 11.4383 2.12283C11.6152 2.04185 11.8065 2 12 2C12.1935 2 12.3848 2.04185 12.5617 2.12283C12.7386 2.20382 12.897 2.32215 13.0268 2.4702C13.1566 2.61824 13.2549 2.79272 13.3153 2.98237C13.3758 3.17202 13.397 3.37263 13.3777 3.57127C14.9425 3.89965 16.3492 4.77582 17.3597 6.05145C18.3703 7.32708 18.9226 8.92381 18.9231 10.5713V16H20.1692C20.3896 16 20.6009 16.0903 20.7567 16.251C20.9125 16.4118 21 16.6298 21 16.8571C21 17.0844 20.9125 17.3025 20.7567 17.4632C20.6009 17.6239 20.3896 17.7143 20.1692 17.7143H18.9231Z" fill="#E4D9F8"/>
</svg>
