<svg width="24" height="24" viewBox="0 0 24 24" fill="none" xmlns="http://www.w3.org/2000/svg">
<path d="M3.53846 19.1409C3.53846 19.8992 3.86264 20.6264 4.43967 21.1626C5.01671 21.6988 5.79933 22 6.61538 22H11.0385C11.0895 22 11.1384 21.9812 11.1744 21.9477C11.2105 21.9142 11.2308 21.8687 11.2308 21.8213V13.6014C11.2308 13.554 11.2105 13.5085 11.1744 13.475C11.1384 13.4415 11.0895 13.4227 11.0385 13.4227H3.92308C3.82107 13.4227 3.72324 13.4603 3.65111 13.5274C3.57898 13.5944 3.53846 13.6853 3.53846 13.7801V19.1409ZM11.2308 11.8144V6.9897H12.7692V11.8144C12.7692 11.8618 12.7895 11.9073 12.8256 11.9408C12.8616 11.9743 12.9105 11.9931 12.9615 11.9931H19.6923C19.9544 11.9931 20.2145 11.9516 20.4615 11.8703C20.9111 11.722 21.3002 11.4481 21.5757 11.0862C21.8511 10.7243 21.9993 10.2921 22 9.8488V9.13403C22 8.56532 21.7569 8.0199 21.3241 7.61776C20.8913 7.21562 20.3043 6.9897 19.6923 6.9897H17.7433C17.7265 6.98945 17.7101 6.98514 17.6957 6.9772C17.6813 6.96926 17.6694 6.95795 17.6611 6.94441C17.6529 6.93087 17.6486 6.91556 17.6487 6.9C17.6487 6.88443 17.6532 6.86916 17.6615 6.85568C18.1067 6.15738 18.2512 5.32854 18.0663 4.53535C17.8813 3.74216 17.3805 3.04326 16.6642 2.5788C15.9479 2.11434 15.0692 1.91864 14.2042 2.03096C13.3392 2.14328 12.5518 2.5553 12 3.18441C11.4482 2.5553 10.6608 2.14328 9.79582 2.03096C8.93079 1.91864 8.05205 2.11434 7.33579 2.5788C6.61953 3.04326 6.11871 3.74216 5.93375 4.53535C5.74878 5.32854 5.89335 6.15738 6.33846 6.85568C6.34684 6.86916 6.35128 6.88443 6.35135 6.9C6.35142 6.91556 6.34711 6.93087 6.33885 6.94441C6.3306 6.95795 6.31867 6.96926 6.30427 6.9772C6.28987 6.98514 6.27348 6.98945 6.25673 6.9897H4.30769C3.69565 6.9897 3.10868 7.21562 2.67591 7.61776C2.24313 8.0199 2 8.56532 2 9.13403V9.8488C2.00068 10.2921 2.1489 10.7243 2.42433 11.0862C2.69976 11.4481 3.08892 11.722 3.53846 11.8703C3.78549 11.9516 4.04563 11.9931 4.30769 11.9931H11.0385C11.0895 11.9931 11.1384 11.9743 11.1744 11.9408C11.2105 11.9073 11.2308 11.8618 11.2308 11.8144ZM12.7692 5.20276C12.7692 4.84934 12.882 4.50385 13.0933 4.20999C13.3046 3.91613 13.605 3.68709 13.9564 3.55184C14.3078 3.41659 14.6944 3.38121 15.0675 3.45015C15.4405 3.5191 15.7832 3.68929 16.0521 3.9392C16.3211 4.18911 16.5042 4.50751 16.5784 4.85415C16.6526 5.20078 16.6146 5.56007 16.469 5.88659C16.3234 6.21311 16.077 6.49219 15.7607 6.68855C15.4445 6.8849 15.0727 6.9897 14.6923 6.9897H12.7692V5.20276ZM9.17019 3.42029C9.43365 3.40274 9.69818 3.43581 9.94728 3.51744C10.1964 3.59907 10.4247 3.7275 10.618 3.89474C10.8114 4.06198 10.9655 4.26443 11.071 4.48947C11.1764 4.71451 11.2308 4.95732 11.2308 5.20276V6.9897H9.30769C8.81043 6.98851 8.33299 6.80839 7.97558 6.48713C7.61817 6.16588 7.40857 5.72846 7.39078 5.2667C7.37299 4.80493 7.54839 4.35471 7.88016 4.01052C8.21194 3.66634 8.67429 3.45496 9.17019 3.42073V3.42029ZM12.9615 22H17.3846C18.2007 22 18.9833 21.6988 19.5603 21.1626C20.1374 20.6264 20.4615 19.8992 20.4615 19.1409V13.7801C20.4615 13.6853 20.421 13.5944 20.3489 13.5274C20.2768 13.4603 20.1789 13.4227 20.0769 13.4227H12.9615C12.9105 13.4227 12.8616 13.4415 12.8256 13.475C12.7895 13.5085 12.7692 13.554 12.7692 13.6014V21.8213C12.7692 21.8687 12.7895 21.9142 12.8256 21.9477C12.8616 21.9812 12.9105 22 12.9615 22Z" fill="#A0A4B0"/>
</svg>
