<svg width="28" height="29" viewBox="0 0 28 29" fill="none" xmlns="http://www.w3.org/2000/svg">
<g filter="url(#filter0_dd_19_1427)">
<g clip-path="url(#clip0_19_1427)">
<circle cx="14" cy="13.5" r="9.84375" fill="#FFA831" stroke="#EE8F0F" stroke-width="0.3125"/>
<circle cx="14" cy="13.5" r="8.59375" fill="url(#paint0_linear_19_1427)" stroke="#FDBD4D" stroke-width="0.3125"/>
<g filter="url(#filter1_dd_19_1427)">
<path d="M12.085 8.88C12.6925 8.62997 13.343 8.5009 14 8.5C14.655 8.5 15.305 8.63 15.915 8.88C16.52 9.13 17.07 9.5 17.535 9.965C18 10.43 18.37 10.98 18.62 11.585C18.87 12.195 19 12.845 19 13.5C19 14.825 18.475 16.1 17.535 17.035C17.0712 17.4999 16.5202 17.8686 15.9136 18.12C15.307 18.3714 14.6567 18.5006 14 18.5C13.343 18.4991 12.6925 18.37 12.085 18.12C11.4789 17.8684 10.9284 17.4997 10.465 17.035C10.0001 16.5712 9.63137 16.0202 9.37996 15.4136C9.12856 14.807 8.99943 14.1567 9 13.5C9 12.175 9.525 10.9 10.465 9.965C10.93 9.5 11.48 9.13 12.085 8.88ZM14 16L14.78 14.29L16.5 13.5L14.78 12.72L14 11L13.215 12.72L11.5 13.5L13.215 14.29L14 16Z" fill="#FDE194"/>
</g>
</g>
</g>
<defs>
<filter id="filter0_dd_19_1427" x="0" y="0.5" width="28" height="28" filterUnits="userSpaceOnUse" color-interpolation-filters="sRGB">
<feFlood flood-opacity="0" result="BackgroundImageFix"/>
<feColorMatrix in="SourceAlpha" type="matrix" values="0 0 0 0 0 0 0 0 0 0 0 0 0 0 0 0 0 0 127 0" result="hardAlpha"/>
<feOffset dy="1"/>
<feGaussianBlur stdDeviation="2"/>
<feColorMatrix type="matrix" values="0 0 0 0 0 0 0 0 0 0 0 0 0 0 0 0 0 0 0.12 0"/>
<feBlend mode="normal" in2="BackgroundImageFix" result="effect1_dropShadow_19_1427"/>
<feColorMatrix in="SourceAlpha" type="matrix" values="0 0 0 0 0 0 0 0 0 0 0 0 0 0 0 0 0 0 127 0" result="hardAlpha"/>
<feOffset/>
<feGaussianBlur stdDeviation="0.5"/>
<feColorMatrix type="matrix" values="0 0 0 0 0 0 0 0 0 0 0 0 0 0 0 0 0 0 0.039 0"/>
<feBlend mode="normal" in2="effect1_dropShadow_19_1427" result="effect2_dropShadow_19_1427"/>
<feBlend mode="normal" in="SourceGraphic" in2="effect2_dropShadow_19_1427" result="shape"/>
</filter>
<filter id="filter1_dd_19_1427" x="7.5" y="7.5" width="13" height="13" filterUnits="userSpaceOnUse" color-interpolation-filters="sRGB">
<feFlood flood-opacity="0" result="BackgroundImageFix"/>
<feColorMatrix in="SourceAlpha" type="matrix" values="0 0 0 0 0 0 0 0 0 0 0 0 0 0 0 0 0 0 127 0" result="hardAlpha"/>
<feOffset dy="0.5"/>
<feGaussianBlur stdDeviation="0.75"/>
<feColorMatrix type="matrix" values="0 0 0 0 0 0 0 0 0 0 0 0 0 0 0 0 0 0 0.12 0"/>
<feBlend mode="normal" in2="BackgroundImageFix" result="effect1_dropShadow_19_1427"/>
<feColorMatrix in="SourceAlpha" type="matrix" values="0 0 0 0 0 0 0 0 0 0 0 0 0 0 0 0 0 0 127 0" result="hardAlpha"/>
<feOffset/>
<feGaussianBlur stdDeviation="0.5"/>
<feColorMatrix type="matrix" values="0 0 0 0 0 0 0 0 0 0 0 0 0 0 0 0 0 0 0.039 0"/>
<feBlend mode="normal" in2="effect1_dropShadow_19_1427" result="effect2_dropShadow_19_1427"/>
<feBlend mode="normal" in="SourceGraphic" in2="effect2_dropShadow_19_1427" result="shape"/>
</filter>
<linearGradient id="paint0_linear_19_1427" x1="21.1094" y1="18.4219" x2="6.1875" y2="9.75" gradientUnits="userSpaceOnUse">
<stop stop-color="#FEC258"/>
<stop offset="0.493004" stop-color="#F8AA1E"/>
<stop offset="0.978599" stop-color="#FEC258"/>
</linearGradient>
<clipPath id="clip0_19_1427">
<path d="M4 13.5C4 7.97715 8.47715 3.5 14 3.5C19.5228 3.5 24 7.97715 24 13.5C24 19.0228 19.5228 23.5 14 23.5C8.47715 23.5 4 19.0228 4 13.5Z" fill="white"/>
</clipPath>
</defs>
</svg>
