<svg width="20" height="21" viewBox="0 0 20 21" fill="none" xmlns="http://www.w3.org/2000/svg">
<path d="M8.75 1.22169C9.5235 0.775106 10.4765 0.775106 11.25 1.22169L17.4103 4.77831C18.1838 5.22489 18.6603 6.05021 18.6603 6.94338V14.0566C18.6603 14.9498 18.1838 15.7751 17.4103 16.2217L11.25 19.7783C10.4765 20.2249 9.5235 20.2249 8.75 19.7783L2.58975 16.2217C1.81624 15.7751 1.33975 14.9498 1.33975 14.0566V6.94338C1.33975 6.05021 1.81624 5.22489 2.58975 4.77831L8.75 1.22169Z" fill="#F6C54D"/>
<path d="M9.16665 1.81446C9.68231 1.51674 10.3176 1.51674 10.8333 1.81446L17.1052 5.43554C17.6209 5.73326 17.9385 6.28347 17.9385 6.87892V14.1211C17.9385 14.7165 17.6209 15.2667 17.1052 15.5645L10.8333 19.1855C10.3176 19.4833 9.68231 19.4833 9.16665 19.1855L2.89475 15.5645C2.37908 15.2667 2.06141 14.7165 2.06141 14.1211V6.87892C2.06141 6.28347 2.37908 5.73326 2.89475 5.43554L9.16665 1.81446Z" fill="url(#paint0_linear_19_1414)"/>
<path opacity="0.5" d="M10.4864 5.63894H9.51421C8.5974 5.63894 8.13949 5.63894 7.85462 5.9238C7.56976 6.20866 7.56976 6.66658 7.56976 7.58338V9.52783H12.4309V7.58338C12.4309 6.66658 12.4309 6.20866 12.146 5.9238C11.8612 5.63894 11.4032 5.63894 10.4864 5.63894Z" fill="white"/>
<path fill-rule="evenodd" clip-rule="evenodd" d="M10.0003 15.3611C11.0317 15.3611 12.0208 14.9514 12.7501 14.2221C13.4794 13.4928 13.8892 12.5037 13.8892 11.4723C13.8892 10.4409 13.4794 9.4517 12.7501 8.72239C12.0208 7.99309 11.0317 7.58336 10.0003 7.58336C8.96888 7.58336 7.97973 7.99309 7.25042 8.72239C6.52111 9.4517 6.11139 10.4409 6.11139 11.4723C6.11139 12.5037 6.52111 13.4928 7.25042 14.2221C7.97973 14.9514 8.96888 15.3611 10.0003 15.3611ZM10.0003 10.0139C9.86222 10.0139 9.76986 10.1792 9.58514 10.5112L9.5375 10.5968C9.485 10.6911 9.45875 10.7377 9.41792 10.7689C9.3766 10.8 9.32556 10.8116 9.22347 10.8345L9.13111 10.8559C8.77236 10.937 8.59299 10.9774 8.55021 11.1145C8.50743 11.252 8.62993 11.395 8.87444 11.6808L8.93764 11.7547C9.00715 11.8359 9.04215 11.8762 9.05771 11.9268C9.07326 11.9773 9.06792 12.0313 9.05771 12.1397L9.04799 12.2384C9.01104 12.62 8.99257 12.811 9.10389 12.8956C9.21569 12.9802 9.38389 12.9029 9.71979 12.7483L9.80632 12.7084C9.90208 12.6647 9.94972 12.6423 10.0003 12.6423C10.0508 12.6423 10.0985 12.6647 10.1942 12.7084L10.2808 12.7483C10.6167 12.9034 10.7849 12.9802 10.8967 12.8956C11.0085 12.811 10.9895 12.62 10.9526 12.2384L10.9428 12.1397C10.9326 12.0313 10.9273 11.9773 10.9428 11.9268C10.9584 11.8767 10.9934 11.8359 11.0629 11.7547L11.1261 11.6808C11.3706 11.395 11.4931 11.252 11.4503 11.1145C11.4076 10.9774 11.2282 10.937 10.8694 10.8559L10.7771 10.8345C10.675 10.8116 10.624 10.8004 10.5826 10.7689C10.5418 10.7377 10.5156 10.6911 10.4631 10.5968L10.4154 10.5112C10.2307 10.1792 10.1383 10.0139 10.0003 10.0139Z" fill="white"/>
<defs>
<linearGradient id="paint0_linear_19_1414" x1="0.833027" y1="19.6666" x2="19.1664" y2="1.33311" gradientUnits="userSpaceOnUse">
<stop stop-color="#E8A312"/>
<stop offset="1" stop-color="#FFDA72"/>
</linearGradient>
</defs>
</svg>
