<svg width="111" height="15" viewBox="0 0 111 15" fill="none" xmlns="http://www.w3.org/2000/svg">
<g filter="url(#filter0_dd_1_4298)">
<path d="M2 7C2 3.68629 4.68629 1 8 1H103C106.314 1 109 3.68629 109 7C109 10.3137 106.314 13 103 13H8C4.68629 13 2 10.3137 2 7Z" fill="#FFDEBD"/>
</g>
<path d="M2 7C2 3.68629 4.68629 1 8 1H17.2857V13H8C4.6863 13 2 10.3137 2 7Z" fill="#FF8000"/>
<path d="M17.2857 1H32.5714V13H17.2857V1Z" fill="#FF8000"/>
<path d="M32.5714 1H47.8571V13H32.5714V1Z" fill="#FF8000"/>
<defs>
<filter id="filter0_dd_1_4298" x="0.5" y="0" width="110" height="15" filterUnits="userSpaceOnUse" color-interpolation-filters="sRGB">
<feFlood flood-opacity="0" result="BackgroundImageFix"/>
<feColorMatrix in="SourceAlpha" type="matrix" values="0 0 0 0 0 0 0 0 0 0 0 0 0 0 0 0 0 0 127 0" result="hardAlpha"/>
<feOffset dy="0.5"/>
<feGaussianBlur stdDeviation="0.75"/>
<feColorMatrix type="matrix" values="0 0 0 0 0 0 0 0 0 0 0 0 0 0 0 0 0 0 0.12 0"/>
<feBlend mode="normal" in2="BackgroundImageFix" result="effect1_dropShadow_1_4298"/>
<feColorMatrix in="SourceAlpha" type="matrix" values="0 0 0 0 0 0 0 0 0 0 0 0 0 0 0 0 0 0 127 0" result="hardAlpha"/>
<feOffset/>
<feGaussianBlur stdDeviation="0.5"/>
<feColorMatrix type="matrix" values="0 0 0 0 0 0 0 0 0 0 0 0 0 0 0 0 0 0 0.039 0"/>
<feBlend mode="normal" in2="effect1_dropShadow_1_4298" result="effect2_dropShadow_1_4298"/>
<feBlend mode="normal" in="SourceGraphic" in2="effect2_dropShadow_1_4298" result="shape"/>
</filter>
</defs>
</svg>
