<svg width="24" height="24" viewBox="0 0 24 24" fill="none" xmlns="http://www.w3.org/2000/svg">
<g clip-path="url(#clip0_19_1567)">
<path d="M10 13C10 11.8954 10.8954 11 12 11C13.1046 11 14 11.8954 14 13V21H10V13Z" fill="#FF8000"/>
<path d="M13.228 2.42739C12.8769 2.15039 12.4448 2 12 2C11.5552 2 11.1231 2.15039 10.772 2.42739L2.38798 9.04018C1.63598 9.63553 2.04998 10.8577 3.00298 10.8577H3.99998V18.9715C3.99998 19.5095 4.2107 20.0255 4.58577 20.4059C4.96084 20.7863 5.46955 21 5.99998 21H9.99998V14.9146C9.99998 14.3766 10.2107 13.8607 10.5858 13.4803C10.9608 13.0999 11.4695 12.8861 12 12.8861C12.5304 12.8861 13.0391 13.0999 13.4142 13.4803C13.7893 13.8607 14 14.3766 14 14.9146V21H18C18.5304 21 19.0391 20.7863 19.4142 20.4059C19.7893 20.0255 20 19.5095 20 18.9715V10.8577H20.997C21.949 10.8577 22.365 9.63553 21.612 9.04119L13.228 2.42739Z" fill="#FF8000"/>
<path d="M10 16C10 14.8954 10.8954 14 12 14C13.1046 14 14 14.8954 14 16V21H10V16Z" fill="white"/>
</g>
<defs>
<clipPath id="clip0_19_1567">
<rect width="24" height="24" fill="white"/>
</clipPath>
</defs>
</svg>
