<svg width="14" height="15" viewBox="0 0 14 15" fill="none" xmlns="http://www.w3.org/2000/svg">
<path d="M7 1.66669C10.2218 1.66669 12.8333 4.27827 12.8333 7.50002C12.8333 10.7218 10.2218 13.3334 7 13.3334C3.77826 13.3334 1.16667 10.7218 1.16667 7.50002C1.16667 4.27827 3.77826 1.66669 7 1.66669ZM7 9.83335C6.8453 9.83335 6.69692 9.89481 6.58753 10.0042C6.47813 10.1136 6.41667 10.262 6.41667 10.4167C6.41667 10.5714 6.47813 10.7198 6.58753 10.8292C6.69692 10.9386 6.8453 11 7 11C7.15471 11 7.30309 10.9386 7.41248 10.8292C7.52188 10.7198 7.58334 10.5714 7.58334 10.4167C7.58334 10.262 7.52188 10.1136 7.41248 10.0042C7.30309 9.89481 7.15471 9.83335 7 9.83335ZM7 4.29169C6.43918 4.29169 5.90133 4.51447 5.50477 4.91103C5.10821 5.3076 4.88542 5.84545 4.88542 6.40627C4.88542 6.56098 4.94688 6.70935 5.05628 6.81875C5.16567 6.92815 5.31405 6.9896 5.46875 6.9896C5.62346 6.9896 5.77184 6.92815 5.88123 6.81875C5.99063 6.70935 6.05209 6.56098 6.05209 6.40627C6.05228 6.23421 6.0993 6.06544 6.18811 5.91807C6.27692 5.7707 6.40417 5.65028 6.55621 5.56972C6.70825 5.48917 6.87935 5.45151 7.05116 5.4608C7.22297 5.47008 7.38901 5.52596 7.53149 5.62243C7.67396 5.7189 7.78749 5.85233 7.8599 6.00842C7.9323 6.1645 7.96087 6.33735 7.94251 6.50843C7.92416 6.67951 7.85959 6.84237 7.75573 6.97955C7.65186 7.11673 7.51261 7.22304 7.35292 7.2871C6.95859 7.4446 6.41667 7.84827 6.41667 8.52085V8.66669C6.41667 8.8214 6.47813 8.96977 6.58753 9.07917C6.69692 9.18856 6.8453 9.25002 7 9.25002C7.15471 9.25002 7.30309 9.18856 7.41248 9.07917C7.52188 8.96977 7.58334 8.8214 7.58334 8.66669C7.58334 8.52435 7.6125 8.45319 7.73559 8.39252L7.78634 8.36919C8.24181 8.18596 8.61936 7.84999 8.85427 7.41889C9.08917 6.98778 9.16679 6.48839 9.07383 6.00633C8.98086 5.52426 8.7231 5.08955 8.34473 4.77671C7.96636 4.46387 7.49095 4.2924 7 4.29169Z" fill="#FFF3D1"/>
</svg>
