<svg width="25" height="24" viewBox="0 0 25 24" fill="none" xmlns="http://www.w3.org/2000/svg">
<path d="M4.20513 19.1409C4.20513 19.8992 4.52931 20.6264 5.10634 21.1626C5.68338 21.6988 6.46601 22 7.28206 22H11.7051C11.7561 22 11.8051 21.9812 11.8411 21.9477C11.8772 21.9142 11.8974 21.8687 11.8974 21.8213V13.6014C11.8974 13.554 11.8772 13.5085 11.8411 13.475C11.8051 13.4415 11.7561 13.4227 11.7051 13.4227H4.58975C4.48774 13.4227 4.38991 13.4603 4.31778 13.5274C4.24566 13.5944 4.20513 13.6853 4.20513 13.7801V19.1409ZM11.8974 11.8144V6.9897H13.4359V11.8144C13.4359 11.8618 13.4562 11.9073 13.4922 11.9408C13.5283 11.9743 13.5772 11.9931 13.6282 11.9931H20.359C20.621 11.9931 20.8812 11.9516 21.1282 11.8703C21.5777 11.722 21.9669 11.4481 22.2423 11.0862C22.5178 10.7243 22.666 10.2921 22.6667 9.8488V9.13403C22.6667 8.56532 22.4235 8.0199 21.9908 7.61776C21.558 7.21562 20.971 6.9897 20.359 6.9897H18.4099C18.3932 6.98945 18.3768 6.98514 18.3624 6.9772C18.348 6.96926 18.3361 6.95795 18.3278 6.94441C18.3196 6.93087 18.3153 6.91556 18.3153 6.9C18.3154 6.88443 18.3198 6.86916 18.3282 6.85568C18.7733 6.15738 18.9179 5.32854 18.7329 4.53535C18.548 3.74216 18.0471 3.04326 17.3309 2.5788C16.6146 2.11434 15.7359 1.91864 14.8709 2.03096C14.0058 2.14328 13.2185 2.5553 12.6667 3.18441C12.1149 2.5553 11.3275 2.14328 10.4625 2.03096C9.59746 1.91864 8.71872 2.11434 8.00246 2.5788C7.28621 3.04326 6.78538 3.74216 6.60042 4.53535C6.41545 5.32854 6.56002 6.15738 7.00513 6.85568C7.01351 6.86916 7.01795 6.88443 7.01802 6.9C7.01809 6.91556 7.01378 6.93087 7.00552 6.94441C6.99727 6.95795 6.98535 6.96926 6.97094 6.9772C6.95654 6.98514 6.94015 6.98945 6.9234 6.9897H4.97436C4.36233 6.9897 3.77536 7.21562 3.34258 7.61776C2.9098 8.0199 2.66667 8.56532 2.66667 9.13403V9.8488C2.66735 10.2921 2.81557 10.7243 3.091 11.0862C3.36643 11.4481 3.7556 11.722 4.20513 11.8703C4.45216 11.9516 4.7123 11.9931 4.97436 11.9931H11.7051C11.7561 11.9931 11.8051 11.9743 11.8411 11.9408C11.8772 11.9073 11.8974 11.8618 11.8974 11.8144ZM13.4359 5.20276C13.4359 4.84934 13.5487 4.50385 13.76 4.20999C13.9713 3.91613 14.2717 3.68709 14.623 3.55184C14.9744 3.41659 15.3611 3.38121 15.7342 3.45015C16.1072 3.5191 16.4499 3.68929 16.7188 3.9392C16.9877 4.18911 17.1709 4.50751 17.2451 4.85415C17.3193 5.20078 17.2812 5.56007 17.1357 5.88659C16.9901 6.21311 16.7436 6.49219 16.4274 6.68855C16.1111 6.8849 15.7393 6.9897 15.359 6.9897H13.4359V5.20276ZM9.83686 3.42029C10.1003 3.40274 10.3649 3.43581 10.614 3.51744C10.8631 3.59907 11.0914 3.7275 11.2847 3.89474C11.478 4.06198 11.6322 4.26443 11.7376 4.48947C11.8431 4.71451 11.8975 4.95732 11.8974 5.20276V6.9897H9.97436C9.4771 6.98851 8.99966 6.80839 8.64225 6.48713C8.28484 6.16588 8.07524 5.72846 8.05745 5.2667C8.03966 4.80493 8.21506 4.35471 8.54684 4.01052C8.87861 3.66634 9.34096 3.45496 9.83686 3.42073V3.42029ZM13.6282 22H18.0513C18.8673 22 19.65 21.6988 20.227 21.1626C20.804 20.6264 21.1282 19.8992 21.1282 19.1409V13.7801C21.1282 13.6853 21.0877 13.5944 21.0156 13.5274C20.9434 13.4603 20.8456 13.4227 20.7436 13.4227H13.6282C13.5772 13.4227 13.5283 13.4415 13.4922 13.475C13.4562 13.5085 13.4359 13.554 13.4359 13.6014V21.8213C13.4359 21.8687 13.4562 21.9142 13.4922 21.9477C13.5283 21.9812 13.5772 22 13.6282 22Z" fill="#FF8000"/>
</svg>
