<svg width="22" height="21" viewBox="0 0 22 21" fill="none" xmlns="http://www.w3.org/2000/svg">
<path d="M1.96819 15.7595C1.77635 15.7595 1.62085 15.9112 1.62085 16.0978V16.4054C1.62085 16.5922 1.77654 16.7437 1.96819 16.7437C2.16004 16.7437 2.31554 16.5921 2.31554 16.4054V16.0978C2.31573 15.911 2.16004 15.7595 1.96819 15.7595Z" fill="white"/>
<path d="M1.96819 17.3641C1.77635 17.3641 1.62085 17.5157 1.62085 17.7024V19.3081C1.62085 19.495 1.77654 19.6464 1.96819 19.6464C2.16004 19.6464 2.31554 19.4948 2.31554 19.3081V17.7024C2.31573 17.5157 2.16004 17.3641 1.96819 17.3641Z" fill="white"/>
<path d="M12.9299 15.0198C12.7381 15.0198 12.5826 15.1714 12.5826 15.3581V19.3084C12.5826 19.4953 12.7383 19.6467 12.9299 19.6467C13.1218 19.6467 13.2773 19.4951 13.2773 19.3084V15.3581C13.2773 15.1712 13.1216 15.0198 12.9299 15.0198Z" fill="white"/>
<path d="M12.9299 12.7243C12.7381 12.7243 12.5826 12.8759 12.5826 13.0626V14.0428C12.5826 14.2297 12.7383 14.3811 12.9299 14.3811C13.1218 14.3811 13.2773 14.2295 13.2773 14.0428V13.0626C13.2773 12.8757 13.1216 12.7243 12.9299 12.7243Z" fill="white"/>
<path d="M20.0314 15.7595C19.8396 15.7595 19.6841 15.9112 19.6841 16.0978V16.4054C19.6841 16.5922 19.8398 16.7437 20.0314 16.7437C20.2233 16.7437 20.3788 16.5921 20.3788 16.4054V16.0978C20.3788 15.911 20.2231 15.7595 20.0314 15.7595Z" fill="white"/>
<path d="M20.0314 17.3641C19.8396 17.3641 19.6841 17.5157 19.6841 17.7024V19.3081C19.6841 19.495 19.8398 19.6464 20.0314 19.6464C20.2233 19.6464 20.3788 19.4948 20.3788 19.3081V17.7024C20.3788 17.5157 20.2231 17.3641 20.0314 17.3641Z" fill="white"/>
<path d="M20.2633 13.9375H14.8983V11.6917C14.8983 10.7591 14.1193 10 13.1614 10H8.83873C7.88102 10 7.10184 10.7591 7.10184 11.6917V13.9375H1.73689C0.779185 13.9375 0 14.6966 0 15.6292V20.6443C0 20.8312 0.155686 20.9826 0.347345 20.9826H21.6527C21.8445 20.9826 22 20.831 22 20.6443V15.6292C22 14.6966 21.221 13.9376 20.2633 13.9376L20.2633 13.9375ZM0.694943 15.6291C0.694943 15.0696 1.16239 14.6141 1.73699 14.6141H7.10193L7.10212 20.306H0.694987L0.694943 15.6291ZM7.79688 14.2758V11.6917C7.79688 11.1322 8.26432 10.6768 8.83892 10.6768H13.1616C13.7362 10.6768 14.2037 11.1322 14.2037 11.6917V14.2758L14.2039 20.306H7.79672L7.79688 14.2758ZM21.3055 20.306H14.8983V14.6142H20.2633C20.8379 14.6142 21.3053 15.0696 21.3053 15.6291L21.3055 20.306Z" fill="white"/>
<path d="M9.36675 6.05626L9.09725 7.5691C9.0746 7.69553 9.1277 7.82417 9.23447 7.89999C9.34125 7.97618 9.48342 7.98638 9.5999 7.92687L11.0032 7.21447L12.3994 7.9263C12.4502 7.95226 12.5054 7.96505 12.5606 7.96505C12.6327 7.96505 12.7047 7.94299 12.7652 7.8998C12.8722 7.82398 12.9253 7.69588 12.9026 7.56853L12.6327 6.05626L13.765 4.97868C13.8598 4.88877 13.8936 4.75437 13.8525 4.63203C13.8116 4.5095 13.7026 4.42015 13.5716 4.40198L12.0125 4.18397L11.3147 2.80553C11.2563 2.69059 11.1358 2.61737 11.0037 2.617H11.003C10.8711 2.617 10.7506 2.68966 10.692 2.8046L9.98721 4.18395L8.42728 4.40195C8.29633 4.41993 8.18727 4.50946 8.14636 4.632C8.10525 4.75453 8.13912 4.88874 8.23391 4.97865L9.36675 6.05626ZM10.2672 4.82853C10.3802 4.81259 10.4778 4.744 10.5289 4.64445L11.0024 3.71759L11.4708 4.64355C11.5214 4.74347 11.6196 4.8128 11.7331 4.82855L12.776 4.97444L12.0168 5.69686C11.935 5.77435 11.8977 5.88668 11.9173 5.99679L12.0977 7.00874L11.1649 6.5329C11.0636 6.48099 10.9435 6.48137 10.843 6.53253L9.90191 7.01041L10.0825 5.99623C10.1021 5.88649 10.0648 5.77415 9.98298 5.69667L9.22397 4.97425L10.2672 4.82853Z" fill="white"/>
<path d="M6.7249 2.97688C6.79341 3.04732 6.88515 3.0831 6.97746 3.0831C7.06311 3.0831 7.14894 3.05232 7.21613 2.9906C7.35545 2.86232 7.36173 2.64821 7.23021 2.51272L6.48737 1.74749C6.35567 1.6118 6.13565 1.6066 5.99634 1.73433C5.85683 1.86261 5.85074 2.07671 5.98263 2.21278L6.7249 2.97688Z" fill="white"/>
<path d="M9.22644 1.44186C9.26622 1.59517 9.40764 1.69731 9.56294 1.69731C9.5913 1.69731 9.61966 1.69415 9.64839 1.68711C9.83415 1.64151 9.94682 1.45743 9.89982 1.27632L9.6345 0.255074C9.58749 0.0745187 9.39811 -0.0342975 9.21255 0.0101923C9.0266 0.0565357 8.91412 0.240244 8.96112 0.421724L9.22644 1.44186Z" fill="white"/>
<path d="M12.3512 1.68703C12.3799 1.69407 12.4084 1.69722 12.4366 1.69722C12.5919 1.69722 12.7333 1.59509 12.7731 1.44178L13.0384 0.42148C13.0854 0.24 12.9728 0.0562935 12.787 0.00994814C12.6022 -0.0345417 12.4121 0.0742746 12.365 0.25483L12.0997 1.27608C12.0527 1.45719 12.1654 1.64124 12.3512 1.68703Z" fill="white"/>
<path d="M15.0221 3.08317C15.1142 3.08317 15.2062 3.04758 15.2747 2.97695L16.0171 2.21268C16.149 2.07661 16.1429 1.8625 16.0034 1.73423C15.8643 1.6065 15.6443 1.6117 15.5124 1.74739L14.7695 2.51261C14.6378 2.64831 14.6443 2.86241 14.7836 2.99049C14.8508 3.05241 14.9365 3.08317 15.0221 3.08317Z" fill="white"/>
</svg>
