<svg width="33" height="33" viewBox="0 0 33 33" fill="none" xmlns="http://www.w3.org/2000/svg">
<path d="M14.5 1.6547C15.7376 0.94017 17.2624 0.94017 18.5 1.6547L28.3564 7.3453C29.594 8.05983 30.3564 9.38034 30.3564 10.8094V22.1906C30.3564 23.6197 29.594 24.9402 28.3564 25.6547L18.5 31.3453C17.2624 32.0598 15.7376 32.0598 14.5 31.3453L4.64359 25.6547C3.40599 24.9402 2.64359 23.6197 2.64359 22.1906V10.8094C2.64359 9.38034 3.40599 8.05983 4.64359 7.3453L14.5 1.6547Z" fill="#F6C54D"/>
<path d="M15.1667 2.60305C15.9917 2.1267 17.0083 2.1267 17.8333 2.60305L27.8684 8.39678C28.6934 8.87314 29.2017 9.75348 29.2017 10.7062V22.2936C29.2017 23.2464 28.6934 24.1267 27.8684 24.6031L17.8333 30.3968C17.0083 30.8731 15.9917 30.8731 15.1667 30.3968L5.13164 24.6031C4.30657 24.1267 3.7983 23.2464 3.7983 22.2937V10.7062C3.7983 9.75348 4.30657 8.87314 5.13164 8.39678L15.1667 2.60305Z" fill="url(#paint0_linear_2_825)"/>
<path opacity="0.5" d="M17.2778 8.7229H15.7222C14.2553 8.7229 13.5226 8.7229 13.0669 9.17868C12.6111 9.63446 12.6111 10.3671 12.6111 11.834V14.9451H20.3889V11.834C20.3889 10.3671 20.3889 9.63446 19.9331 9.17868C19.4773 8.7229 18.7446 8.7229 17.2778 8.7229Z" fill="white"/>
<path fill-rule="evenodd" clip-rule="evenodd" d="M16.5 24.2782C18.1502 24.2782 19.7328 23.6226 20.8997 22.4557C22.0666 21.2888 22.7222 19.7062 22.7222 18.056C22.7222 16.4057 22.0666 14.8231 20.8997 13.6562C19.7328 12.4893 18.1502 11.8337 16.5 11.8337C14.8497 11.8337 13.2671 12.4893 12.1002 13.6562C10.9333 14.8231 10.2777 16.4057 10.2777 18.056C10.2777 19.7062 10.9333 21.2888 12.1002 22.4557C13.2671 23.6226 14.8497 24.2782 16.5 24.2782ZM16.5 15.7226C16.2791 15.7226 16.1313 15.9871 15.8357 16.5183L15.7595 16.6552C15.6755 16.8061 15.6335 16.8807 15.5682 16.9305C15.5021 16.9803 15.4204 16.999 15.2571 17.0355L15.1093 17.0697C14.5353 17.1996 14.2483 17.2642 14.1799 17.4835C14.1114 17.7036 14.3074 17.9323 14.6986 18.3896L14.7997 18.5079C14.911 18.6377 14.967 18.7023 14.9919 18.7832C15.0167 18.8641 15.0082 18.9504 14.9919 19.1239L14.9763 19.2817C14.9172 19.8923 14.8876 20.198 15.0657 20.3333C15.2446 20.4686 15.5137 20.345 16.0512 20.0976L16.1896 20.0339C16.3429 19.9639 16.4191 19.9281 16.5 19.9281C16.5809 19.9281 16.6571 19.9639 16.8103 20.0339L16.9487 20.0976C17.4862 20.3457 17.7553 20.4686 17.9342 20.3333C18.1131 20.198 18.0827 19.8923 18.0236 19.2817L18.0081 19.1239C17.9917 18.9504 17.9832 18.8641 18.0081 18.7832C18.033 18.7031 18.089 18.6377 18.2002 18.5079L18.3013 18.3896C18.6925 17.9323 18.8885 17.7036 18.8201 17.4835C18.7516 17.2642 18.4646 17.1996 17.8906 17.0697L17.7429 17.0355C17.5795 16.999 17.4979 16.9811 17.4317 16.9305C17.3664 16.8807 17.3244 16.8061 17.2404 16.6552L17.1642 16.5183C16.8686 15.9871 16.7209 15.7226 16.5 15.7226Z" fill="white"/>
<defs>
<linearGradient id="paint0_linear_2_825" x1="1.83289" y1="31.1664" x2="31.1663" y2="1.83289" gradientUnits="userSpaceOnUse">
<stop stop-color="#E8A312"/>
<stop offset="1" stop-color="#FFDA72"/>
</linearGradient>
</defs>
</svg>
